<mxfile host="app.diagrams.net" modified="2023-07-27T10:30:07.837Z" agent="Mozilla/5.0 (Windows NT 10.0; Win64; x64) AppleWebKit/537.36 (KHTML, like Gecko) Chrome/115.0.0.0 Safari/537.36" etag="87nkFxYiTDm3A3po2NQ_" version="21.6.5" type="device">
  <diagram name="Trang-1" id="8GtufM-Yp7jMsoWgzm28">
    <mxGraphModel dx="1050" dy="566" grid="1" gridSize="10" guides="1" tooltips="1" connect="1" arrows="1" fold="1" page="1" pageScale="1" pageWidth="827" pageHeight="1169" math="0" shadow="0">
      <root>
        <mxCell id="0" />
        <mxCell id="1" parent="0" />
        <mxCell id="ke1GsT-cDKthGTjzYdBD-2" value="" style="image;html=1;image=img/lib/clip_art/computers/Server_Rack_128x128.png" vertex="1" parent="1">
          <mxGeometry x="460" y="40" width="80" height="80" as="geometry" />
        </mxCell>
        <mxCell id="ke1GsT-cDKthGTjzYdBD-4" value="Application" style="rounded=0;whiteSpace=wrap;html=1;" vertex="1" parent="1">
          <mxGeometry x="160" y="220" width="120" height="30" as="geometry" />
        </mxCell>
        <mxCell id="ke1GsT-cDKthGTjzYdBD-5" value="Transport" style="rounded=0;whiteSpace=wrap;html=1;" vertex="1" parent="1">
          <mxGeometry x="160" y="250" width="120" height="30" as="geometry" />
        </mxCell>
        <mxCell id="ke1GsT-cDKthGTjzYdBD-6" value="Datalink" style="rounded=0;whiteSpace=wrap;html=1;" vertex="1" parent="1">
          <mxGeometry x="160" y="280" width="120" height="30" as="geometry" />
        </mxCell>
        <mxCell id="ke1GsT-cDKthGTjzYdBD-7" value="Physical&lt;br&gt;" style="rounded=0;whiteSpace=wrap;html=1;" vertex="1" parent="1">
          <mxGeometry x="160" y="310" width="120" height="30" as="geometry" />
        </mxCell>
        <mxCell id="ke1GsT-cDKthGTjzYdBD-9" value="Google.com&lt;br&gt;" style="swimlane;whiteSpace=wrap;html=1;startSize=80;" vertex="1" parent="1">
          <mxGeometry x="160" y="180" width="120" height="40" as="geometry" />
        </mxCell>
        <mxCell id="ke1GsT-cDKthGTjzYdBD-10" value="Google.com&lt;br&gt;" style="swimlane;whiteSpace=wrap;html=1;startSize=40;" vertex="1" parent="1">
          <mxGeometry x="440" y="180" width="120" height="40" as="geometry" />
        </mxCell>
        <mxCell id="ke1GsT-cDKthGTjzYdBD-11" value="Application" style="rounded=0;whiteSpace=wrap;html=1;" vertex="1" parent="1">
          <mxGeometry x="440" y="220" width="120" height="30" as="geometry" />
        </mxCell>
        <mxCell id="ke1GsT-cDKthGTjzYdBD-12" value="Transport" style="rounded=0;whiteSpace=wrap;html=1;" vertex="1" parent="1">
          <mxGeometry x="440" y="250" width="120" height="30" as="geometry" />
        </mxCell>
        <mxCell id="ke1GsT-cDKthGTjzYdBD-13" value="Datalink" style="rounded=0;whiteSpace=wrap;html=1;" vertex="1" parent="1">
          <mxGeometry x="440" y="280" width="120" height="30" as="geometry" />
        </mxCell>
        <mxCell id="ke1GsT-cDKthGTjzYdBD-14" value="Physical&lt;br&gt;" style="rounded=0;whiteSpace=wrap;html=1;" vertex="1" parent="1">
          <mxGeometry x="440" y="310" width="120" height="30" as="geometry" />
        </mxCell>
        <mxCell id="ke1GsT-cDKthGTjzYdBD-15" value="" style="endArrow=classic;html=1;rounded=0;" edge="1" parent="1">
          <mxGeometry width="50" height="50" relative="1" as="geometry">
            <mxPoint x="290" y="330" as="sourcePoint" />
            <mxPoint x="430" y="330" as="targetPoint" />
            <Array as="points" />
          </mxGeometry>
        </mxCell>
        <mxCell id="ke1GsT-cDKthGTjzYdBD-21" value="Internet" style="edgeLabel;html=1;align=center;verticalAlign=middle;resizable=0;points=[];" vertex="1" connectable="0" parent="ke1GsT-cDKthGTjzYdBD-15">
          <mxGeometry x="0.05" y="-2" relative="1" as="geometry">
            <mxPoint x="-3" y="-2" as="offset" />
          </mxGeometry>
        </mxCell>
        <mxCell id="ke1GsT-cDKthGTjzYdBD-24" value="" style="endArrow=classic;html=1;rounded=0;entryX=0.5;entryY=1;entryDx=0;entryDy=0;exitX=0.5;exitY=0;exitDx=0;exitDy=0;" edge="1" parent="1" source="ke1GsT-cDKthGTjzYdBD-10" target="ke1GsT-cDKthGTjzYdBD-2">
          <mxGeometry width="50" height="50" relative="1" as="geometry">
            <mxPoint x="390" y="280" as="sourcePoint" />
            <mxPoint x="440" y="230" as="targetPoint" />
          </mxGeometry>
        </mxCell>
        <mxCell id="ke1GsT-cDKthGTjzYdBD-25" value="80" style="edgeLabel;html=1;align=center;verticalAlign=middle;resizable=0;points=[];" vertex="1" connectable="0" parent="ke1GsT-cDKthGTjzYdBD-24">
          <mxGeometry x="-0.0133" y="2" relative="1" as="geometry">
            <mxPoint as="offset" />
          </mxGeometry>
        </mxCell>
        <mxCell id="ke1GsT-cDKthGTjzYdBD-26" value="" style="image;aspect=fixed;perimeter=ellipsePerimeter;html=1;align=center;shadow=0;dashed=0;spacingTop=3;image=img/lib/active_directory/web_server.svg;" vertex="1" parent="1">
          <mxGeometry x="600" y="20" width="40" height="50" as="geometry" />
        </mxCell>
        <mxCell id="ke1GsT-cDKthGTjzYdBD-27" value="" style="html=1;verticalLabelPosition=bottom;align=center;labelBackgroundColor=#ffffff;verticalAlign=top;strokeWidth=2;strokeColor=#0080F0;shadow=0;dashed=0;shape=mxgraph.ios7.icons.mail;" vertex="1" parent="1">
          <mxGeometry x="605" y="103.5" width="30" height="16.5" as="geometry" />
        </mxCell>
        <mxCell id="ke1GsT-cDKthGTjzYdBD-28" value="" style="endArrow=classic;html=1;rounded=0;entryX=0;entryY=0.75;entryDx=0;entryDy=0;exitX=1;exitY=0.25;exitDx=0;exitDy=0;" edge="1" parent="1" source="ke1GsT-cDKthGTjzYdBD-2" target="ke1GsT-cDKthGTjzYdBD-26">
          <mxGeometry width="50" height="50" relative="1" as="geometry">
            <mxPoint x="390" y="210" as="sourcePoint" />
            <mxPoint x="440" y="160" as="targetPoint" />
            <Array as="points" />
          </mxGeometry>
        </mxCell>
        <mxCell id="ke1GsT-cDKthGTjzYdBD-30" value="80&lt;br&gt;" style="edgeLabel;html=1;align=center;verticalAlign=middle;resizable=0;points=[];" vertex="1" connectable="0" parent="ke1GsT-cDKthGTjzYdBD-28">
          <mxGeometry x="0.0025" y="1" relative="1" as="geometry">
            <mxPoint as="offset" />
          </mxGeometry>
        </mxCell>
        <mxCell id="ke1GsT-cDKthGTjzYdBD-29" value="" style="endArrow=classic;html=1;rounded=0;entryX=-0.047;entryY=0.782;entryDx=0;entryDy=0;entryPerimeter=0;" edge="1" parent="1" source="ke1GsT-cDKthGTjzYdBD-2" target="ke1GsT-cDKthGTjzYdBD-27">
          <mxGeometry width="50" height="50" relative="1" as="geometry">
            <mxPoint x="550" y="70" as="sourcePoint" />
            <mxPoint x="612" y="66" as="targetPoint" />
          </mxGeometry>
        </mxCell>
        <mxCell id="ke1GsT-cDKthGTjzYdBD-31" value="Text" style="edgeLabel;html=1;align=center;verticalAlign=middle;resizable=0;points=[];" vertex="1" connectable="0" parent="ke1GsT-cDKthGTjzYdBD-29">
          <mxGeometry x="-0.0162" y="2" relative="1" as="geometry">
            <mxPoint as="offset" />
          </mxGeometry>
        </mxCell>
        <mxCell id="ke1GsT-cDKthGTjzYdBD-32" value="" style="image;points=[];aspect=fixed;html=1;align=center;shadow=0;dashed=0;image=img/lib/allied_telesis/computer_and_terminals/Personal_Computer.svg;" vertex="1" parent="1">
          <mxGeometry x="190" y="670" width="90" height="121.97" as="geometry" />
        </mxCell>
        <mxCell id="ke1GsT-cDKthGTjzYdBD-33" value="" style="points=[[0.005,0.09,0],[0.08,0,0],[0.76,0.25,0],[1,0.92,0],[0.91,0.995,0],[0.57,0.995,0],[0.045,0.955,0],[0.005,0.43,0]];verticalLabelPosition=bottom;sketch=0;html=1;verticalAlign=top;aspect=fixed;align=center;pointerEvents=1;shape=mxgraph.cisco19.3g_4g_indicator;fillColor=#005073;strokeColor=none;" vertex="1" parent="1">
          <mxGeometry x="460" y="730" width="50" height="50" as="geometry" />
        </mxCell>
        <mxCell id="ke1GsT-cDKthGTjzYdBD-34" value="" style="endArrow=classic;html=1;rounded=0;entryX=0.005;entryY=0.43;entryDx=0;entryDy=0;entryPerimeter=0;exitX=1.049;exitY=0.676;exitDx=0;exitDy=0;exitPerimeter=0;" edge="1" parent="1" source="ke1GsT-cDKthGTjzYdBD-32" target="ke1GsT-cDKthGTjzYdBD-33">
          <mxGeometry width="50" height="50" relative="1" as="geometry">
            <mxPoint x="430" y="740" as="sourcePoint" />
            <mxPoint x="480" y="690" as="targetPoint" />
          </mxGeometry>
        </mxCell>
        <mxCell id="ke1GsT-cDKthGTjzYdBD-36" value="171.225.251.112" style="text;html=1;align=center;verticalAlign=middle;resizable=0;points=[];autosize=1;strokeColor=none;fillColor=none;" vertex="1" parent="1">
          <mxGeometry x="304" y="761.97" width="110" height="30" as="geometry" />
        </mxCell>
        <mxCell id="ke1GsT-cDKthGTjzYdBD-37" value="google.com&lt;br&gt;" style="swimlane;whiteSpace=wrap;html=1;startSize=40;" vertex="1" parent="1">
          <mxGeometry x="140" y="550" width="190" height="50" as="geometry" />
        </mxCell>
        <mxCell id="ke1GsT-cDKthGTjzYdBD-38" value="Team&lt;br&gt;" style="text;html=1;align=center;verticalAlign=middle;resizable=0;points=[];autosize=1;strokeColor=none;fillColor=none;" vertex="1" parent="1">
          <mxGeometry x="455" y="560" width="50" height="30" as="geometry" />
        </mxCell>
        <mxCell id="ke1GsT-cDKthGTjzYdBD-39" value="" style="endArrow=none;dashed=1;html=1;dashPattern=1 3;strokeWidth=2;rounded=0;" edge="1" parent="1">
          <mxGeometry width="50" height="50" relative="1" as="geometry">
            <mxPoint x="510" y="600" as="sourcePoint" />
            <mxPoint x="510" y="550" as="targetPoint" />
            <Array as="points">
              <mxPoint x="440" y="600" />
              <mxPoint x="440" y="550" />
              <mxPoint x="510" y="550" />
              <mxPoint x="510" y="600" />
            </Array>
          </mxGeometry>
        </mxCell>
        <mxCell id="ke1GsT-cDKthGTjzYdBD-43" value="" style="endArrow=classic;html=1;rounded=0;entryX=0.5;entryY=1;entryDx=0;entryDy=0;exitX=0.48;exitY=-0.046;exitDx=0;exitDy=0;exitPerimeter=0;" edge="1" parent="1" source="ke1GsT-cDKthGTjzYdBD-32" target="ke1GsT-cDKthGTjzYdBD-37">
          <mxGeometry width="50" height="50" relative="1" as="geometry">
            <mxPoint x="430" y="610" as="sourcePoint" />
            <mxPoint x="480" y="560" as="targetPoint" />
          </mxGeometry>
        </mxCell>
        <mxCell id="ke1GsT-cDKthGTjzYdBD-45" value="80" style="edgeLabel;html=1;align=center;verticalAlign=middle;resizable=0;points=[];" vertex="1" connectable="0" parent="ke1GsT-cDKthGTjzYdBD-43">
          <mxGeometry x="0.0991" relative="1" as="geometry">
            <mxPoint as="offset" />
          </mxGeometry>
        </mxCell>
        <mxCell id="ke1GsT-cDKthGTjzYdBD-44" value="" style="endArrow=classic;html=1;rounded=0;exitX=1.022;exitY=0.007;exitDx=0;exitDy=0;exitPerimeter=0;" edge="1" parent="1" source="ke1GsT-cDKthGTjzYdBD-32">
          <mxGeometry width="50" height="50" relative="1" as="geometry">
            <mxPoint x="243" y="674" as="sourcePoint" />
            <mxPoint x="450" y="600" as="targetPoint" />
          </mxGeometry>
        </mxCell>
        <mxCell id="ke1GsT-cDKthGTjzYdBD-46" value="655&lt;br&gt;" style="edgeLabel;html=1;align=center;verticalAlign=middle;resizable=0;points=[];" vertex="1" connectable="0" parent="ke1GsT-cDKthGTjzYdBD-44">
          <mxGeometry x="-0.0454" y="-2" relative="1" as="geometry">
            <mxPoint as="offset" />
          </mxGeometry>
        </mxCell>
      </root>
    </mxGraphModel>
  </diagram>
</mxfile>
